<svg id="visual" viewBox="0 0 960 540" width="960" height="540" xmlns="http://www.w3.org/2000/svg" xmlns:xlink="http://www.w3.org/1999/xlink" version="1.1"><path d="M0 505L42 505L42 505L83 505L83 498L125 498L125 500L167 500L167 500L209 500L209 503L250 503L250 500L292 500L292 505L334 505L334 507L376 507L376 504L417 504L417 503L459 503L459 498L501 498L501 507L543 507L543 505L584 505L584 501L626 501L626 506L668 506L668 507L710 507L710 501L751 501L751 502L793 502L793 503L835 503L835 502L877 502L877 505L918 505L918 502L960 502L960 506L960 541L960 541L918 541L918 541L877 541L877 541L835 541L835 541L793 541L793 541L751 541L751 541L710 541L710 541L668 541L668 541L626 541L626 541L584 541L584 541L543 541L543 541L501 541L501 541L459 541L459 541L417 541L417 541L376 541L376 541L334 541L334 541L292 541L292 541L250 541L250 541L209 541L209 541L167 541L167 541L125 541L125 541L83 541L83 541L42 541L42 541L0 541Z" fill="#000000"></path><path d="M0 509L42 509L42 507L83 507L83 508L125 508L125 513L167 513L167 507L209 507L209 508L250 508L250 511L292 511L292 507L334 507L334 510L376 510L376 508L417 508L417 511L459 511L459 509L501 509L501 504L543 504L543 510L584 510L584 505L626 505L626 510L668 510L668 510L710 510L710 512L751 512L751 504L793 504L793 513L835 513L835 511L877 511L877 513L918 513L918 507L960 507L960 504L960 541L960 541L918 541L918 541L877 541L877 541L835 541L835 541L793 541L793 541L751 541L751 541L710 541L710 541L668 541L668 541L626 541L626 541L584 541L584 541L543 541L543 541L501 541L501 541L459 541L459 541L417 541L417 541L376 541L376 541L334 541L334 541L292 541L292 541L250 541L250 541L209 541L209 541L167 541L167 541L125 541L125 541L83 541L83 541L42 541L42 541L0 541Z" fill="#111111"></path><path d="M0 512L42 512L42 510L83 510L83 515L125 515L125 511L167 511L167 512L209 512L209 516L250 516L250 511L292 511L292 512L334 512L334 516L376 516L376 514L417 514L417 511L459 511L459 513L501 513L501 511L543 511L543 517L584 517L584 515L626 515L626 518L668 518L668 512L710 512L710 516L751 516L751 511L793 511L793 510L835 510L835 511L877 511L877 516L918 516L918 513L960 513L960 513L960 541L960 541L918 541L918 541L877 541L877 541L835 541L835 541L793 541L793 541L751 541L751 541L710 541L710 541L668 541L668 541L626 541L626 541L584 541L584 541L543 541L543 541L501 541L501 541L459 541L459 541L417 541L417 541L376 541L376 541L334 541L334 541L292 541L292 541L250 541L250 541L209 541L209 541L167 541L167 541L125 541L125 541L83 541L83 541L42 541L42 541L0 541Z" fill="#1c1c1c"></path><path d="M0 520L42 520L42 520L83 520L83 523L125 523L125 520L167 520L167 521L209 521L209 519L250 519L250 522L292 522L292 522L334 522L334 517L376 517L376 519L417 519L417 519L459 519L459 522L501 522L501 523L543 523L543 517L584 517L584 519L626 519L626 522L668 522L668 519L710 519L710 521L751 521L751 519L793 519L793 519L835 519L835 516L877 516L877 522L918 522L918 522L960 522L960 517L960 541L960 541L918 541L918 541L877 541L877 541L835 541L835 541L793 541L793 541L751 541L751 541L710 541L710 541L668 541L668 541L626 541L626 541L584 541L584 541L543 541L543 541L501 541L501 541L459 541L459 541L417 541L417 541L376 541L376 541L334 541L334 541L292 541L292 541L250 541L250 541L209 541L209 541L167 541L167 541L125 541L125 541L83 541L83 541L42 541L42 541L0 541Z" fill="#262626"></path><path d="M0 527L42 527L42 526L83 526L83 527L125 527L125 523L167 523L167 526L209 526L209 524L250 524L250 524L292 524L292 526L334 526L334 528L376 528L376 528L417 528L417 527L459 527L459 528L501 528L501 528L543 528L543 526L584 526L584 525L626 525L626 526L668 526L668 527L710 527L710 526L751 526L751 523L793 523L793 527L835 527L835 523L877 523L877 524L918 524L918 527L960 527L960 524L960 541L960 541L918 541L918 541L877 541L877 541L835 541L835 541L793 541L793 541L751 541L751 541L710 541L710 541L668 541L668 541L626 541L626 541L584 541L584 541L543 541L543 541L501 541L501 541L459 541L459 541L417 541L417 541L376 541L376 541L334 541L334 541L292 541L292 541L250 541L250 541L209 541L209 541L167 541L167 541L125 541L125 541L83 541L83 541L42 541L42 541L0 541Z" fill="#313131"></path><path d="M0 531L42 531L42 530L83 530L83 531L125 531L125 532L167 532L167 530L209 530L209 530L250 530L250 529L292 529L292 533L334 533L334 531L376 531L376 533L417 533L417 530L459 530L459 532L501 532L501 533L543 533L543 534L584 534L584 533L626 533L626 530L668 530L668 532L710 532L710 530L751 530L751 533L793 533L793 531L835 531L835 529L877 529L877 529L918 529L918 529L960 529L960 533L960 541L960 541L918 541L918 541L877 541L877 541L835 541L835 541L793 541L793 541L751 541L751 541L710 541L710 541L668 541L668 541L626 541L626 541L584 541L584 541L543 541L543 541L501 541L501 541L459 541L459 541L417 541L417 541L376 541L376 541L334 541L334 541L292 541L292 541L250 541L250 541L209 541L209 541L167 541L167 541L125 541L125 541L83 541L83 541L42 541L42 541L0 541Z" fill="#3d3d3d"></path></svg>